{"title":"Made.In.Chelsea.S05E01.PDTV.x264-W33D","uid":8357358,"size":213357878,"categoryP":"video","categoryS":"tv_shows","magnet":"?xt=urn:btih:af71d0b160d0d385a49b2c8fdd4f4c53a39fd969&amp;dn=Made.In.Chelsea.S05E01.PDTV.x264-W33D&amp;tr=udp%3A%2F%2Ftracker.openbittorrent.com%3A80&amp;tr=udp%3A%2F%2Fopen.demonii.com%3A1337&amp;tr=udp%3A%2F%2Ftracker.coppersurfer.tk%3A6969&amp;tr=udp%3A%2F%2Fexodus.desync.com%3A6969","seeders":2,"leechers":0,"uploader":"shane1989","files":1,"time":1365529776,"description":"Complete name : Made.In.Chelsea.S05E01.PDTV.x264-W33D.mp4\nFormat : MPEG-4\nFormat profile : Base Media\nCodec ID : isom\nFile size : 203 MiB\nDuration : 47mn 52s\nOverall bit rate mode : Variable\nOverall bit rate : 594 Kbps\nPart/Position : 5\nTrack name/Position : 1\n\n\nVideo\nID : 1\nFormat : AVC\nFormat/Info : Advanced Video Codec\nFormat profile : &lt;a class=&quot;__cf_email__&quot; href=&quot;/cdn-cgi/l/email-protection&quot; data-cfemail=&quot;125a7b757a525e213c23&quot;&gt;[email&amp;#160;protected]&lt;/a&gt;&lt;script cf-hash='f9e31' type=&quot;text/javascript&quot;&gt;\n/* &lt;![CDATA[ */!function(){try{var t=&quot;currentScript&quot;in document?document.currentScript:function(){for(var t=document.getElementsByTagName(&quot;script&quot;),e=t.length;e--;)if(t[e].getAttribute(&quot;cf-hash&quot;))return t[e]}();if(t&amp;&amp;t.previousSibling){var e,r,n,i,c=t.previousSibling,a=c.getAttribute(&quot;data-cfemail&quot;);if(a){for(e=&quot;&quot;,r=parseInt(a.substr(0,2),16),n=2;a.length-n;n+=2)i=parseInt(a.substr(n,2),16)^r,e+=String.fromCharCode(i);e=document.createTextNode(e),c.parentNode.replaceChild(e,c)}}}catch(u){}}();/* ]]&gt; */&lt;/script&gt;\nFormat settings, CABAC : Yes\nFormat settings, ReFrames : 4 frames\nCodec ID : avc1\nCodec ID/Info : Advanced Video Coding\nDuration : 47mn 52s\nBit rate : 448 Kbps\nMaximum bit rate : 2 409 Kbps\nWidth : 704 pixels\nHeight : 384 pixels\nDisplay aspect ratio : 1.85:1\nFrame rate mode : Constant\nFrame rate : 25.000 fps\nColor space : YUV\nChroma subsampling : 4:2:0\nBit depth : 8 bits\nScan type : Progressive\nBits/(Pixel*Frame) : 0.066\nStream size : 153 MiB (75%)\nWriting library : x264 core 130 r2273 b3065e6\nLanguage : English\n\n\nAudio\nID : 2\nFormat : AAC\nFormat/Info : Advanced Audio Codec\nFormat profile : LC\nCodec ID : 40\nDuration : 47mn 52s\nBit rate mode : Variable\nBit rate : 138 Kbps\nMaximum bit rate : 152 Kbps\nChannel(s) : 2 channels\nChannel positions : Front: L R\nSampling rate : 48.0 KHz\nCompression mode : Lossy\nStream size : 47.3 MiB (23%)\nLanguage : English","torrent":{"xt":"urn:btih:af71d0b160d0d385a49b2c8fdd4f4c53a39fd969","amp;dn":"Made.In.Chelsea.S05E01.PDTV.x264-W33D","amp;tr":["udp%3A%2F%2Ftracker.openbittorrent.com%3A80","udp%3A%2F%2Fopen.demonii.com%3A1337","udp%3A%2F%2Ftracker.coppersurfer.tk%3A6969","udp%3A%2F%2Fexodus.desync.com%3A6969"],"infoHash":"af71d0b160d0d385a49b2c8fdd4f4c53a39fd969","infoHashBuffer":{"type":"Buffer","data":[175,113,208,177,96,208,211,133,164,155,44,143,221,79,76,83,163,159,217,105]},"announce":[],"urlList":[]}}